<?xml version="1.0" encoding="UTF-8"?>
<svg id="Layer_2" data-name="Layer 2" xmlns="http://www.w3.org/2000/svg" viewBox="0 0 47.14 96.92">
  <defs>
    <style>
      .cls-1, .cls-2 {
        fill: #ccc;
      }

      .cls-3 {
        fill: #fff;
      }

      .cls-2 {
        stroke: #fff;
        stroke-miterlimit: 10;
      }
    </style>
  </defs>
  <g id="Layer_1-2" data-name="Layer 1">
    <path class="cls-1" d="M36.2,37.63c-17.62,0-35.25,11.66-36.2,35,0,19.28,16.42,24.2,36.2,24.28v-59.28Z"/>
    <path class="cls-1" d="M26.38,32.55c4.04,19.3-.69,18.25-7.23,19.62-6.53,1.37-12.4,4.63-16.44-14.66C-1.32,18.21.7,1.46,7.23.09c6.53-1.37,15.11,13.17,19.15,32.46Z"/>
    <path class="cls-3" d="M36.8,87.67l3.28-4.13c.4-.5.04-1.25-.6-1.25h-6.55c-.64,0-1,.74-.6,1.25l3.28,4.13c.31.39.9.39,1.21,0Z"/>
    <g>
      <path class="cls-1" d="M47.14,90.89v6.03h-8.62v-6.03h8.62ZM41.97,91.32h-.86v5.18h4.31v-.86h-3.45v-4.31Z"/>
      <path class="cls-1" d="M47.14,84.87v6.03h-8.62v-6.03h8.62ZM41.97,85.3h-.86v5.18h.86v-5.18ZM45.42,85.3h-2.59v5.18h2.59v-5.18ZM44.55,86.16v3.45h-.86v-3.45h.86Z"/>
      <path class="cls-1" d="M47.14,78.85v6.03h-8.62v-6.03h8.62ZM45.42,79.28h-4.31v4.31h-1.73v.86h6.03v-5.18ZM44.55,80.15v3.45h-2.59v-3.45h2.59Z"/>
      <path class="cls-1" d="M47.14,72.84v6.03h-8.62v-6.03h8.62ZM45.42,73.27h-4.31v4.31h-1.73v.86h6.03v-5.18ZM44.55,74.13v3.45h-2.59v-3.45h2.59Z"/>
      <path class="cls-1" d="M47.14,71.13v1.72h-8.62v-1.72h8.62ZM45.42,71.56h-4.31v.86h4.31v-.86Z"/>
      <path class="cls-1" d="M47.14,65.12v6.03h-8.62v-6.03h8.62ZM45.42,65.55h-.86v4.31h-2.59v-4.31h-.86v4.31h-1.73v.86h6.03v-5.18Z"/>
      <path class="cls-1" d="M47.14,59.1v6.03h-8.62v-6.03h8.62ZM45.42,59.53h-2.59v4.31h-.86v-4.31h-.86v5.18h2.59v-4.31h.86v4.31h.86v-5.18Z"/>
      <path class="cls-1" d="M45.42,57.82v.86h-.86v-.86h.86Z"/>
      <path class="cls-1" d="M47.14,51.38v6.03h-8.62v-6.03h8.62ZM45.42,51.81h-.86v4.31h-2.59v-4.31h-.86v5.18h4.31v-5.18Z"/>
      <path class="cls-1" d="M47.14,49.67v1.72h-8.62v-1.72h8.62ZM45.42,50.1h-6.03v.86h6.03v-.86Z"/>
      <path class="cls-1" d="M47.14,43.66v6.03h-8.62v-6.03h8.62ZM45.42,44.08h-4.31v.86h3.44v3.45h-3.44v.86h4.31v-5.18Z"/>
      <path class="cls-1" d="M47.14,37.64v6.03h-8.62v-6.03h8.62ZM45.42,38.07h-4.31v4.31h-1.73v.86h6.03v-5.18ZM44.55,38.93v3.45h-2.59v-3.45h2.59Z"/>
    </g>
    <path class="cls-2" d="M27.15,72.17l-9.86-15.33c-.15-.24-.5-.26-.68-.03l-7.31,9.23c-.18.22-.08.55.19.65l17.18,6.1c.37.13.7-.28.49-.62Z"/>
  </g>
</svg>